<svg width="166" height="166" viewBox="0 0 166 166" fill="none" xmlns="http://www.w3.org/2000/svg">
<circle cx="83" cy="83" r="82" fill="#E25AF0" fill-opacity="0.13" stroke="#E25AF0" stroke-width="2"/>
<path opacity="0.3" d="M83 72.625C71.5401 72.625 62.25 63.3349 62.25 51.875C62.25 40.4151 71.5401 31.125 83 31.125C94.4599 31.125 103.75 40.4151 103.75 51.875C103.75 63.3349 94.4599 72.625 83 72.625Z" fill="#E25AF0"/>
<path d="M36.3159 120.346C38.3266 95.5875 58.4212 83 82.9136 83C107.751 83 128.157 94.8959 129.677 120.35C129.737 121.364 129.677 124.5 125.78 124.5C106.557 124.5 77.9926 124.5 40.0864 124.5C38.7854 124.5 36.2064 121.694 36.3159 120.346Z" fill="#E25AF0"/>
</svg>
