<svg width="142" height="284" viewBox="0 0 142 284" fill="none" xmlns="http://www.w3.org/2000/svg">
<path d="M72.591 215.081L85.6017 247.342L63.0799 259.56L49.9933 223.766C47.9286 218.128 50.3094 211.829 55.5869 208.965C61.4667 205.778 68.8172 207.959 72.007 213.837C72.2255 214.24 72.4205 214.656 72.591 215.081Z" fill="white"/>
<path fill-rule="evenodd" clip-rule="evenodd" d="M86.0002 247.485L62.9086 260.011L49.6938 223.875C47.4393 217.525 50.6565 210.536 56.9464 208.118C63.2362 205.701 70.3066 208.737 72.8851 214.963L86.0002 247.485ZM63.2746 259.104L85.2265 247.19L72.3203 215.191C69.9404 209.178 63.1621 206.205 57.1266 208.525C51.0911 210.846 48.0507 217.594 50.3114 223.652L63.2746 259.104Z" fill="#E25AF0"/>
<path d="M80.3022 232.66L85.8483 246.112C86.1947 246.956 85.8511 247.926 85.0506 248.363L45.7859 269.66C45.3691 269.886 44.8796 269.936 44.4254 269.801C43.9711 269.666 43.5893 269.355 43.3642 268.938C43.3309 268.881 43.3024 268.815 43.2739 268.753C39.9924 260.576 43.3595 251.239 51.1041 247.038L57.4337 243.605C65.9234 243.295 73.8348 239.223 79.0201 232.494C79.1833 232.284 79.4451 232.176 79.7086 232.211C79.9721 232.245 80.1978 232.416 80.3022 232.66Z" fill="#75F980"/>
<path d="M15.9419 153.675C15.9995 152.179 16.2549 150.697 16.7017 149.268C16.7539 149.111 16.8014 148.95 16.8584 148.793C16.8714 148.745 16.8872 148.697 16.9059 148.651C17.6309 146.588 18.7466 144.684 20.1918 143.043L20.4672 142.796C21.1908 142.019 21.9857 141.311 22.8414 140.683L23.207 140.36L74.9649 94.2148L97.5436 114.049L52.9654 158.019L81.4275 220.737L48.065 238.833L17.9553 162.331L17.7701 161.856C17.3836 161.09 17.0551 160.297 16.7872 159.482C16.7302 159.311 16.678 159.145 16.6305 158.974L16.4833 158.594C16.0628 156.99 15.8804 155.332 15.9419 153.675Z" fill="white"/>
<path fill-rule="evenodd" clip-rule="evenodd" d="M81.8362 220.889L47.8992 239.293L17.6613 162.469L17.4713 161.994C17.0767 161.21 16.7418 160.397 16.4694 159.563C16.4172 159.406 16.3602 159.235 16.3222 159.088L16.1702 158.708V158.66C15.7444 157.029 15.5605 155.345 15.6242 153.66C15.6841 152.136 15.9444 150.625 16.3982 149.168L16.5549 148.694L16.6024 148.546C17.3417 146.43 18.4887 144.48 19.9785 142.805L20.2349 142.578C20.9578 141.794 21.7527 141.08 22.6091 140.446L74.9652 93.7922L98.0093 114.035L53.3457 158.091L81.8362 220.889ZM48.2267 238.401L81.0145 220.613L52.7329 158.186L52.6427 157.986L97.1354 114.101L75.022 94.6754L23.4446 140.631L23.0648 140.973C22.2088 141.594 21.4138 142.295 20.6906 143.067L20.4389 143.285C19.0184 144.896 17.9235 146.766 17.2147 148.793L17.1672 148.931C17.1544 148.971 17.1415 149.01 17.1288 149.049C17.0896 149.169 17.0511 149.288 17.0153 149.406C16.576 150.808 16.3252 152.263 16.2698 153.732C16.2072 155.342 16.38 156.953 16.7826 158.513L16.9441 158.931C16.9915 159.074 17.0438 159.24 17.096 159.406C17.3617 160.221 17.6886 161.015 18.0742 161.78L18.2404 162.208L48.2267 238.401Z" fill="#E25AF0"/>
<path d="M127.07 235.628L133.418 269.816L108.921 277.324L103.195 239.645C102.293 233.71 105.875 228.01 111.614 226.249C114.685 225.307 118.004 225.624 120.841 227.13C123.679 228.636 125.801 231.208 126.742 234.279C126.876 234.722 126.985 235.172 127.07 235.628Z" fill="white"/>
<path fill-rule="evenodd" clip-rule="evenodd" d="M133.784 270.049L108.665 277.746L102.886 239.73C101.859 233.024 106.402 226.734 113.092 225.602C119.781 224.47 126.141 228.914 127.378 235.585L133.732 269.773L133.784 270.049ZM109.178 276.929L133.057 269.607L126.775 235.685C125.691 229.259 119.603 224.93 113.178 226.014C106.753 227.099 102.424 233.186 103.508 239.611L109.178 276.929Z" fill="#E25AF0"/>
<path d="M131.039 254.422L133.808 268.705C133.981 269.6 133.45 270.481 132.578 270.747L89.8705 283.838C88.9252 284.125 87.9264 283.591 87.6388 282.646C87.6388 282.58 87.6055 282.513 87.5913 282.447C85.9971 273.784 91.1491 265.301 99.5716 262.722L106.462 260.609C114.843 261.989 123.403 259.566 129.819 253.999C129.969 253.869 130.164 253.804 130.362 253.818C130.56 253.832 130.744 253.925 130.873 254.075C130.958 254.174 131.016 254.294 131.039 254.422Z" fill="#75F980"/>
<path d="M85.6583 172.583C88.1549 180.809 96.5214 185.765 104.935 184.003C113.349 182.241 119.024 174.343 118.009 165.807C117.87 164.626 117.602 163.463 117.212 162.34C114.509 154.517 106.451 149.883 98.3297 151.483C90.2082 153.082 84.5091 160.425 84.9745 168.689C85.0464 170.01 85.2759 171.317 85.6583 172.583Z" fill="#E25AF0"/>
<path d="M101.29 91.5793L117.52 162.222L118.337 165.754L135.968 242.499L99.6806 253.619L85.3498 172.659L84.6518 168.703L71.2185 92.8947L101.29 91.5793Z" fill="white"/>
<path fill-rule="evenodd" clip-rule="evenodd" d="M136.343 242.731L99.4339 254.047L85.0272 172.749L84.3292 168.784V168.737L70.8437 92.6003L101.537 91.2708L136.277 242.446L136.343 242.731ZM99.9322 253.225L135.598 242.304L101.039 91.9355L71.5983 93.2081L84.9651 168.632V168.665V168.703L99.9322 253.225Z" fill="#E25AF0"/>
<path d="M2.69441 107.282L12.5379 105.454L34.5089 78.9343C38.8632 74.0838 46.2706 73.5369 51.2901 77.6953C56.3096 81.8538 57.1499 89.2337 53.1939 94.4142L30.4015 121.898C26.8959 126.117 20.998 127.463 16.0094 125.182C11.0208 122.902 8.1796 117.561 9.07629 112.15L3.75331 113.137C2.13961 113.438 0.586903 112.376 0.282211 110.763C0.136436 109.988 0.304733 109.187 0.750034 108.535C1.19534 107.884 1.88114 107.437 2.65642 107.292L2.69441 107.282Z" fill="white"/>
<path fill-rule="evenodd" clip-rule="evenodd" d="M23.0323 126.466C22.3866 126.566 21.7341 126.617 21.0807 126.618L21.1139 126.637C20.5882 126.638 20.0631 126.603 19.5422 126.532C16.2636 126.108 13.2882 124.398 11.271 121.778C9.2538 119.159 8.36022 115.846 8.78699 112.567L3.89612 113.474C2.73829 113.689 1.55393 113.269 0.789165 112.374C0.0244026 111.479 -0.204575 110.243 0.188488 109.133C0.581554 108.023 1.53694 107.207 2.69477 106.993L12.4243 105.188L34.3193 78.7538L34.5282 78.5211C39.0278 73.7099 46.4957 73.2344 51.5692 77.4361C56.6427 81.6378 57.5671 89.0635 53.6786 94.3809L30.7057 122.112L30.492 122.344C28.5675 124.553 25.9262 126.012 23.0323 126.466ZM30.2116 121.727L30.4253 121.494L52.8046 94.5091L52.9898 94.2669C56.89 89.2233 56.0889 81.9957 51.1789 77.9286C46.269 73.8616 39.0186 74.4198 34.7891 79.1907L34.6847 79.2999L12.8419 105.692L12.7659 105.782L2.79425 107.629C1.79358 107.725 0.932236 108.376 0.567043 109.313C0.201851 110.25 0.395016 111.312 1.06652 112.06C1.73802 112.808 2.77348 113.115 3.74393 112.852L9.51327 111.784L9.44204 112.23C8.55565 117.505 11.321 122.718 16.1854 124.942C21.0499 127.167 26.8018 125.848 30.2116 121.727Z" fill="#E25AF0"/>
<path d="M51.9028 50.439C51.9408 50.3725 51.974 50.3107 52.0168 50.249L52.0737 50.154L52.2494 49.8644C55.8999 44.4753 63.1506 42.9235 68.687 46.3465C74.2234 49.7695 76.0757 56.9493 72.8861 62.6234L54.1203 92.9753L36.0431 76.5173L51.9028 50.439Z" fill="white"/>
<path fill-rule="evenodd" clip-rule="evenodd" d="M73.3463 62.5332L54.2102 93.4787L35.6771 76.6123L51.646 50.2965L51.6887 50.2206L51.76 50.1066L52.1731 49.4561C55.9671 44.0674 63.3021 42.567 68.9074 46.0328C74.5127 49.4987 76.448 56.7312 73.3226 62.5332H73.3463ZM54.0728 92.5005L72.4777 62.7374L72.6249 62.4715C75.769 56.9418 73.9747 49.9155 68.5641 46.5705C63.1535 43.2255 56.0662 44.7607 52.5248 50.0448L52.2826 50.4105L52.2257 50.5102L36.4751 76.4698L54.0728 92.5005Z" fill="#E25AF0"/>
<path d="M51.8403 58.7392V58.6205L51.883 54.5843C51.9093 51.8955 53.0027 49.3274 54.9227 47.4448C56.8426 45.5623 59.4318 44.5196 62.1206 44.5462L102.986 44.9593C105.676 44.9856 108.245 46.0795 110.128 48.0003C112.012 49.9212 113.055 52.5116 113.028 55.2016L112.986 59.2378C112.97 60.8814 112.555 62.4965 111.775 63.9435L103.907 102.98L65.1786 102.477L53.5545 64.3661C52.4369 62.7023 51.8402 60.7434 51.8403 58.7392Z" fill="#E25AF0"/>
<path d="M87.397 38.1644L76.186 36.6165L74.9894 45.2918C74.7838 46.7779 75.1772 48.2848 76.0829 49.4808C76.9886 50.6768 78.3324 51.4639 79.8185 51.669C81.3053 51.8744 82.8128 51.4804 84.009 50.5738C85.2051 49.6671 85.9918 48.3221 86.1957 46.8351L87.397 38.1644Z" fill="white"/>
<path fill-rule="evenodd" clip-rule="evenodd" d="M86.5086 46.8825C86.0971 49.8337 83.5766 52.0323 80.5968 52.0393C78.8699 52.0388 77.2276 51.2916 76.0927 49.9901C74.9577 48.6886 74.441 46.9599 74.6755 45.249L75.9149 36.2603L87.7527 37.8937L86.5086 46.8825ZM85.8822 46.7923L87.0361 38.435L76.4566 36.9725L75.3027 45.3345C74.9813 47.2533 75.7285 49.195 77.2531 50.4035C78.7778 51.6119 80.8389 51.8959 82.6336 51.1449C84.4282 50.3938 85.6727 48.7264 85.8822 46.7923Z" fill="#E25AF0"/>
<path d="M85.5161 10.3814C82.3135 9.93926 79.0665 10.7875 76.4893 12.7395C73.9122 14.6915 72.2161 17.5874 71.7742 20.79L70.7722 28.0456C70.3301 31.2482 71.1783 34.4952 73.1303 37.0724C75.0823 39.6495 77.9782 41.3456 81.1808 41.7875C84.3836 42.231 87.6313 41.3833 90.2088 39.431C92.7862 37.4788 94.482 34.5821 94.9227 31.379L95.9246 24.1234C96.3668 20.9208 95.5186 17.6737 93.5666 15.0966C91.6146 12.5195 88.7187 10.8233 85.5161 10.3814Z" fill="white"/>
<path fill-rule="evenodd" clip-rule="evenodd" d="M95.2221 31.4312C94.3706 37.6031 89.1065 42.2072 82.8762 42.2291C82.2917 42.2305 81.7077 42.1909 81.1288 42.1104C74.2914 41.1583 69.5145 34.852 70.4496 28.0123L71.4515 20.7567V20.7093C72.0379 16.255 74.9682 12.4575 79.1281 10.7607C83.2881 9.0639 88.0385 9.72861 91.5729 12.502C95.1073 15.2755 96.8828 19.7315 96.224 24.1756L95.2221 31.4312ZM73.3816 36.8909C75.283 39.4014 78.1039 41.0535 81.2236 41.4836C84.3439 41.9163 87.5083 41.0911 90.0198 39.1896C92.5313 37.2881 94.1841 34.4664 94.6142 31.3457L95.6114 24.0901C96.1907 19.888 94.4842 15.696 91.1348 13.0933C87.7853 10.4905 83.3017 9.87236 79.3729 11.4717C75.4441 13.071 72.667 16.6448 72.0877 20.847L71.0857 28.0978C70.6544 31.2173 71.4803 34.3804 73.3816 36.8909Z" fill="#E25AF0"/>
<path d="M71.0476 4.93014C71.8395 2.98552 73.3716 1.43521 75.3067 0.620368C77.2419 -0.194472 79.4215 -0.207075 81.3659 0.585333L92.2873 5.03461C95.5887 6.37806 97.585 9.76229 97.1639 13.3016L97.6388 13.52C102.948 15.8505 105.364 22.0416 103.038 27.3522L100.545 33.0503C98.8451 36.926 94.3257 38.6903 90.4496 36.9915C87.8492 35.8471 86.666 32.8136 87.8048 30.2108L89.3053 24.4414L87.7003 24.261C86.6701 24.1464 85.7276 23.6273 85.0802 22.8178C84.4328 22.0083 84.1335 20.9748 84.2482 19.9447L84.3622 18.9285L75.3781 15.2722C73.4335 14.4803 71.8832 12.9482 71.0684 11.013C70.2535 9.07791 70.2409 6.89831 71.0333 4.95388L71.0476 4.93014Z" fill="#E25AF0"/>
<path d="M85.4212 24.7788L84.9464 28.1027C84.8585 28.7338 85.0255 29.3739 85.4103 29.8817C85.7952 30.3895 86.3663 30.7233 86.9977 30.8093C87.6284 30.9025 88.27 30.7381 88.7782 30.3531C89.2864 29.9682 89.6184 29.3951 89.6995 28.7627L90.1744 25.4388C90.2623 24.8085 90.096 24.169 89.7121 23.6613C89.3283 23.1536 88.7583 22.8194 88.1278 22.7322C87.4974 22.6443 86.858 22.8106 86.3503 23.1945C85.8426 23.5784 85.5084 24.1483 85.4212 24.7788Z" fill="white"/>
<path fill-rule="evenodd" clip-rule="evenodd" d="M90.0274 28.8053C89.8423 30.1476 88.6947 31.1471 87.3398 31.1463V31.1226C87.2196 31.1296 87.0991 31.1296 86.9789 31.1226C85.4909 30.9188 84.4495 29.5479 84.6521 28.0598L85.127 24.7359C85.3329 23.2516 86.703 22.2152 88.1873 22.4211C89.6717 22.6269 90.7081 23.9971 90.5022 25.4814L90.0274 28.8053ZM88.1231 30.3622C88.8116 30.0822 89.2984 29.4561 89.4002 28.7199H89.405L89.8798 25.396C89.9867 24.2834 89.1971 23.2846 88.09 23.1317C86.9828 22.9788 85.9521 23.7263 85.7534 24.8262L85.2786 28.1501C85.1768 28.8863 85.4755 29.621 86.0623 30.0772C86.649 30.5335 87.4346 30.6421 88.1231 30.3622Z" fill="#E25AF0"/>
<path d="M25.0118 127.71L25.4297 127.487C26.0707 127.142 26.5485 126.556 26.7577 125.859C26.967 125.162 26.8907 124.41 26.5455 123.769L22.1105 115.526C21.7655 114.885 21.1799 114.407 20.4826 114.198C19.7854 113.988 19.0335 114.065 18.3925 114.41L17.9746 114.633C16.6418 115.353 16.1428 117.016 16.8588 118.351L21.2985 126.594C21.6426 127.235 22.2273 127.713 22.9238 127.922C23.6204 128.131 24.3715 128.055 25.0118 127.71Z" fill="white"/>
<path fill-rule="evenodd" clip-rule="evenodd" d="M25.1349 127.99C24.6967 128.226 24.2078 128.351 23.7104 128.356C22.5745 128.363 21.5276 127.742 20.9896 126.741L16.5545 118.498C15.7548 117.01 16.3114 115.155 17.7986 114.353L18.2165 114.13C18.9312 113.746 19.7689 113.662 20.5455 113.896C21.322 114.131 21.9737 114.664 22.3571 115.378L26.7969 123.622C27.5938 125.11 27.0378 126.963 25.5528 127.767L25.1349 127.99ZM21.8208 115.678C21.3987 114.89 20.5774 114.399 19.684 114.4C19.2829 114.4 18.8879 114.499 18.5349 114.69L18.1171 114.913C16.9387 115.551 16.4973 117.022 17.1294 118.204L21.5644 126.447C22.2028 127.625 23.6733 128.067 24.8551 127.435L25.2729 127.207C26.4507 126.57 26.8923 125.101 26.2606 123.921L21.8208 115.678Z" fill="#E25AF0"/>
<path d="M30.3441 123.565L31.0089 123.137C32.2111 122.365 32.5598 120.764 31.7876 119.562L27.514 112.914C27.1439 112.336 26.5591 111.929 25.8886 111.782C25.218 111.635 24.5165 111.76 23.9385 112.131L23.2737 112.558C22.0714 113.33 21.7228 114.931 22.495 116.134L26.7685 122.781C27.1387 123.359 27.7234 123.767 28.394 123.914C29.0646 124.061 29.7661 123.935 30.3441 123.565Z" fill="white"/>
<path fill-rule="evenodd" clip-rule="evenodd" d="M30.5153 123.816C30.0511 124.122 29.5087 124.287 28.9531 124.291C28.743 124.285 28.5342 124.255 28.331 124.201C27.5768 124.042 26.9189 123.585 26.5076 122.933L22.234 116.285C21.8179 115.638 21.6766 114.851 21.8414 114.099C22.0062 113.347 22.4636 112.692 23.1125 112.278L23.7725 111.85C25.1233 110.986 26.919 111.379 27.785 112.729L32.0585 119.377C32.9202 120.728 32.5275 122.521 31.1801 123.389L30.5153 123.816ZM25.8283 112.111C25.6726 112.075 25.5133 112.056 25.3534 112.055H25.3344C24.9014 112.055 24.4777 112.18 24.1141 112.415L23.4493 112.843C22.3952 113.522 22.0894 114.926 22.7655 115.981L27.0391 122.629C27.7165 123.685 29.1207 123.993 30.1778 123.318L30.8378 122.89C31.8913 122.211 32.1988 120.809 31.5264 119.752L27.2528 113.104C26.9309 112.595 26.4174 112.237 25.8283 112.111Z" fill="#E25AF0"/>
<path d="M13.7535 117.002L13.1457 117.23C11.7738 117.749 11.0811 119.281 11.5977 120.654L14.6509 128.759C15.1719 130.129 16.7018 130.821 18.0746 130.307L18.6823 130.075C20.0537 129.558 20.7466 128.027 20.2303 126.656L17.1771 118.55C16.6582 117.178 15.1263 116.486 13.7535 117.002Z" fill="white"/>
<path fill-rule="evenodd" clip-rule="evenodd" d="M18.1833 130.602C17.8491 130.727 17.4954 130.791 17.1386 130.792C15.9025 130.793 14.7945 130.029 14.3561 128.873L11.3028 120.768C11.0241 120.031 11.0496 119.214 11.3738 118.496C11.698 117.778 12.2943 117.219 13.0313 116.941L13.6438 116.713C14.3811 116.434 15.1989 116.46 15.9169 116.786C16.6349 117.111 17.194 117.708 17.471 118.446L20.5243 126.547C20.8031 127.283 20.7775 128.101 20.4533 128.819C20.1291 129.536 19.5329 130.096 18.7958 130.374L18.1833 130.602ZM16.8779 118.664C16.528 117.758 15.6608 117.156 14.6888 117.145C14.4083 117.148 14.1303 117.199 13.8674 117.297L13.2548 117.529C12.6748 117.748 12.2053 118.188 11.9497 118.752C11.6942 119.317 11.6734 119.96 11.892 120.54L14.95 128.646C15.1684 129.226 15.6083 129.695 16.1729 129.951C16.7375 130.206 17.3806 130.227 17.9605 130.008L18.5731 129.78C19.7796 129.322 20.3886 127.974 19.9359 126.765L16.8779 118.664Z" fill="#E25AF0"/>
<path d="M70.0223 126.691L70.1039 126.605L70.0098 126.476C68.6533 127.187 66.979 126.755 66.1362 125.476C65.2934 124.198 65.556 122.489 66.7438 121.522L67.8026 120.667C67.7713 120.376 67.7534 120.084 67.7455 119.789L65.2587 120.873C63.7658 121.462 62.0747 120.763 61.4323 119.293C60.7898 117.822 61.4263 116.107 62.8726 115.411L70.0441 112.278C70.6496 111.453 71.3564 110.707 72.148 110.059L98.2115 86.4793C103.215 82.3008 110.624 82.8184 114.998 87.6519C119.371 92.4854 119.148 99.9099 114.492 104.472L88.028 128.417C86.2658 130.015 84.0713 131.057 81.7195 131.414L80.1039 133.808C79.2095 135.188 77.3658 135.582 75.986 134.687C74.6061 133.793 74.2125 131.949 75.1069 130.569C74.9846 130.519 74.8589 130.465 74.7365 130.408L74.6254 130.525C74.1195 131.132 73.3927 131.513 72.6054 131.583C71.8182 131.653 71.0354 131.407 70.4301 130.899C69.1652 129.845 68.9933 127.966 70.046 126.701L70.0223 126.691Z" fill="white"/>
<path fill-rule="evenodd" clip-rule="evenodd" d="M115.246 87.4468C119.657 92.3198 119.524 99.7807 114.942 104.493L88.2859 128.649L88.0425 128.844C86.3113 130.341 84.1979 131.328 81.9383 131.694L80.3834 133.969C79.3462 135.457 77.3068 135.839 75.8013 134.827C75.8067 134.525 75.7886 134.224 75.747 133.925C75.7419 133.889 75.7365 133.853 75.7308 133.817C75.22 133.272 74.9667 132.539 75.0185 131.807C74.7634 131.363 74.4507 130.953 74.0872 130.587C73.1223 131.463 71.636 131.52 70.6017 130.666C70.0303 130.194 69.7058 129.534 69.6439 128.85C69.4527 128.859 69.2612 128.876 69.07 128.903C69.3656 128.079 69.4855 127.226 69.4448 126.391C68.3222 126.759 67.0626 126.342 66.3918 125.325C65.6344 124.175 65.8772 122.638 66.952 121.779L67.0788 121.676C66.9156 121.542 66.7446 121.415 66.5662 121.295L67.4936 120.552C67.4845 120.465 67.4753 120.371 67.4728 120.277L65.4044 121.182C63.7516 121.833 61.8799 121.059 61.1697 119.431C60.4596 117.802 61.1658 115.904 62.7676 115.136L69.8596 112.044C70.4625 111.226 71.1649 110.485 71.9504 109.839L98.0105 86.2565L98.2537 86.0552C103.398 81.9647 110.836 82.5738 115.246 87.4468ZM67.0788 121.676L68.1456 120.816L68.1242 120.646C68.1002 120.374 68.0791 120.086 68.071 119.784L68.0552 119.317L65.1401 120.591C64.2696 120.977 63.2595 120.868 62.4903 120.307C61.7211 119.746 61.3096 118.818 61.4109 117.871C61.5122 116.924 62.1109 116.103 62.9814 115.718L63.001 115.697L70.2523 112.534L70.3111 112.472C70.9027 111.669 71.5919 110.942 72.3627 110.308L98.2872 86.8067L98.3885 86.6999C103.255 82.5635 110.528 83.0402 114.813 87.7765C119.098 92.5127 118.847 99.7962 114.246 104.226L114.037 104.447L88.0394 127.971L87.7995 128.168C86.0815 129.725 83.9424 130.74 81.6501 131.087L81.5129 131.107L79.7994 133.605C78.957 134.717 77.3996 134.991 76.2286 134.233C76.0425 134.112 75.8762 133.972 75.7308 133.817C75.6163 133.103 75.3729 132.423 75.0185 131.807C75.0448 131.435 75.1496 131.064 75.3391 130.718L75.529 130.407L75.1959 130.261C75.1777 130.254 75.16 130.246 75.1427 130.239C75.0274 130.189 74.9298 130.147 74.8322 130.1L74.6111 129.995L74.3541 130.307C74.2707 130.408 74.1814 130.502 74.0872 130.587C73.889 130.388 73.6758 130.202 73.4486 130.031C72.3507 129.205 71.0046 128.792 69.6439 128.85C69.583 128.176 69.7776 127.478 70.243 126.914L70.2658 126.89L70.5141 126.628L70.1132 126.078L69.8715 126.208C69.7326 126.283 69.5899 126.343 69.4448 126.391C69.3568 124.585 68.5178 122.86 67.0788 121.676Z" fill="#E25AF0"/>
<path d="M89.9759 57.1651C89.6769 50.6541 94.5721 45.0686 101.066 44.511C107.56 43.9533 113.336 48.6225 114.151 55.0891L117.206 90.6483L92.5058 91.6835L89.9759 57.1651Z" fill="white"/>
<path fill-rule="evenodd" clip-rule="evenodd" d="M114.472 54.7648L117.581 90.964L92.2799 92.0253L89.7049 57.2024L89.6931 56.8837C89.5513 50.3119 94.539 44.7603 101.088 44.2003C107.638 43.6402 113.496 48.2643 114.472 54.7648ZM116.915 90.3338L113.911 55.4249L113.914 55.4148L113.88 55.1134C113.132 48.7733 107.486 44.1715 101.126 44.7178C94.765 45.264 89.9866 50.7609 90.3309 57.1357L90.3459 57.4443L92.8524 91.3386L116.915 90.3338Z" fill="#E25AF0"/>
</svg>
