<svg width="42" height="42" viewBox="0 0 42 42" fill="none" xmlns="http://www.w3.org/2000/svg">
<path fill-rule="evenodd" clip-rule="evenodd" d="M2.33334 21C2.33334 10.6867 10.6867 2.33333 21 2.33333C31.3133 2.33333 39.6667 10.6867 39.6667 21C39.6667 31.3133 31.3133 39.6667 21 39.6667C10.6867 39.6667 2.33334 31.3133 2.33334 21ZM30.3334 21L16.3334 11.6667V30.3333L30.3334 21Z" fill="#75F880"/>
<mask id="mask0" mask-type="alpha" maskUnits="userSpaceOnUse" x="2" y="2" width="38" height="38">
<path fill-rule="evenodd" clip-rule="evenodd" d="M2.33334 21C2.33334 10.6867 10.6867 2.33333 21 2.33333C31.3133 2.33333 39.6667 10.6867 39.6667 21C39.6667 31.3133 31.3133 39.6667 21 39.6667C10.6867 39.6667 2.33334 31.3133 2.33334 21ZM30.3334 21L16.3334 11.6667V30.3333L30.3334 21Z" fill="white"/>
</mask>
<g mask="url(#mask0)">
<rect x="3.05176e-05" width="42" height="42" rx="9.33333" fill="#75F880"/>
</g>
</svg>
