<svg width="24" height="24" viewBox="0 0 24 24" fill="none" xmlns="http://www.w3.org/2000/svg">
<path d="M13.0647 18.411C13.6229 18.411 13.8511 18.0389 13.8447 17.5723C13.8163 15.8151 14.4992 14.8691 15.7321 16.102C17.096 17.466 17.3783 18.411 19.0347 18.411H21.9679C22.7085 18.411 23 18.1727 23 17.7987C23 17.0076 21.6975 15.6116 20.5938 14.5868C19.0484 13.1522 18.976 13.1183 20.3069 11.3913C21.9578 9.24724 24.1174 6.50003 22.2071 6.50003H18.558C17.8504 6.50003 17.799 6.89877 17.547 7.49277C16.6349 9.64415 14.9016 12.4308 14.2434 12.0045C13.5551 11.56 13.8704 9.79907 13.9226 7.18202C13.9364 6.49086 13.9327 6.01695 12.8768 5.77129C12.3002 5.63837 11.7392 5.58337 11.2186 5.58337C9.13508 5.58337 7.6978 6.45695 8.51452 6.60911C9.95454 6.87769 9.81613 9.9934 9.48065 11.339C8.89584 13.682 6.69776 9.48374 5.78205 7.39285C5.56114 6.89052 5.49331 6.50003 4.70501 6.50003H1.72139C1.27041 6.50003 1 6.64669 1 6.97302C1 7.52485 3.71322 13.1329 6.30361 15.9287C8.82984 18.6558 11.3267 18.411 13.0647 18.411Z" fill="#75F880"/>
</svg>
