<svg width="23" height="18" viewBox="0 0 23 18" fill="none" xmlns="http://www.w3.org/2000/svg">
<path d="M20.6358 5.33374C20.6504 5.49363 20.6504 5.65355 20.6504 5.81344C20.6504 10.6903 15.9074 16.3096 7.23858 16.3096C4.56788 16.3096 2.08694 15.7043 0 14.6536C0.379455 14.6878 0.744266 14.6992 1.13832 14.6992C3.34196 14.6992 5.37054 14.1168 6.99047 13.1231C4.91814 13.0888 3.18146 12.0266 2.5831 10.5647C2.875 10.5989 3.16686 10.6218 3.47336 10.6218C3.89657 10.6218 4.31982 10.5761 4.71383 10.4962C2.55394 10.1535 0.933971 8.66876 0.933971 6.87562V6.82995C1.56148 7.10406 2.29124 7.27538 3.06466 7.2982C1.79499 6.63575 0.96317 5.50505 0.96317 4.22586C0.96317 3.54059 1.19663 2.91242 1.60528 2.36419C3.92572 4.60277 7.41368 6.06467 11.3248 6.2246C11.2519 5.95048 11.2081 5.66498 11.2081 5.37944C11.2081 3.34642 13.3096 1.69035 15.9219 1.69035C17.2791 1.69035 18.505 2.13578 19.366 2.85533C20.4314 2.69544 21.4529 2.38704 22.3578 1.96447C22.0075 2.82108 21.2632 3.54063 20.2855 3.99745C21.2341 3.91754 22.1535 3.71191 22.9999 3.4264C22.3579 4.15734 21.5552 4.80833 20.6358 5.33374Z" fill="white"/>
</svg>
