<svg width="111" height="260" viewBox="0 0 111 260" fill="none" xmlns="http://www.w3.org/2000/svg">
<path d="M41.2645 177.78L35.4454 198.864C33.8856 204.528 36.8195 210.462 42.2672 212.661C48.1908 215.045 54.9257 212.178 57.3133 206.256C57.5236 205.732 57.6957 205.194 57.8284 204.645L62.9515 183.385C64.2504 177.985 61.3968 172.448 56.2449 170.372C53.4896 169.262 50.4061 169.291 47.6727 170.454C44.9393 171.618 42.78 173.819 41.6699 176.575C41.5111 176.968 41.3757 177.371 41.2645 177.78Z" fill="white"/>
<path fill-rule="evenodd" clip-rule="evenodd" d="M37.1595 209.122C39.4013 212.066 42.8901 213.793 46.5904 213.791H46.6069C52.0753 213.78 56.8278 210.032 58.1134 204.717L63.2365 183.457C64.4986 177.44 60.8073 171.494 54.8547 169.955C48.9022 168.417 42.7917 171.829 40.9796 177.704L35.1661 198.789C34.1802 202.355 34.9176 206.178 37.1595 209.122ZM35.7142 198.941L41.5442 177.862L41.5332 177.84C43.0463 172.008 49.0014 168.506 54.8342 170.019C60.6671 171.532 64.169 177.487 62.6559 183.32L57.5328 204.579C57.5054 204.694 57.4725 204.815 57.4396 204.93C55.7859 210.929 49.5818 214.452 43.5825 212.798C37.5832 211.145 34.0604 204.941 35.7142 198.941Z" fill="#E25AF0"/>
<path d="M34.2236 198.881L31.2593 212.267C31.344 213.11 32.0557 213.75 32.9031 213.746H78.6114C79.5192 213.746 80.2551 213.01 80.2551 212.102C80.2605 212.039 80.2605 211.974 80.2551 211.911C79.3155 203.817 72.4639 197.71 64.3159 197.703L59.6475 197.593C52.6066 201.084 42.3768 201.368 35.1934 198.185C35.0273 198.108 34.8371 198.101 34.6658 198.166C34.4946 198.231 34.3569 198.362 34.2838 198.53C34.2313 198.639 34.2105 198.761 34.2236 198.881Z" fill="#E25AF0"/>
<path d="M80.7434 122.089C79.818 117.658 77.3113 113.716 73.6915 110.998L70.4039 109.218L51.7743 99.0536C52.1696 97.9555 52.5025 96.8359 52.7716 95.7003L39.9719 92.6264L14.0767 78.5117C12.5369 80.661 11.3358 83.0337 10.5152 85.5471L5.0359 84.2266C1.40861 99.344 9.15086 114.166 22.3395 117.333C23.2682 117.557 24.211 117.718 25.1614 117.815L46.9525 131.168L28.2079 191.073L63.763 191.939L79.8941 130.275L80.8256 126.675C81.0218 125.15 80.9941 123.605 80.7434 122.089Z" fill="white"/>
<path fill-rule="evenodd" clip-rule="evenodd" d="M27.7963 191.352L63.9597 192.24L80.1675 130.373L81.0989 126.757V126.686C81.3018 125.142 81.2796 123.577 81.0332 122.039C80.0964 117.519 77.5348 113.499 73.8334 110.741L52.1244 98.9165C52.4877 97.8832 52.7968 96.8315 53.0504 95.7659L53.1216 95.481L40.07 92.3468L13.983 78.1335L13.8296 78.3418C12.3269 80.4416 11.1416 82.7512 10.3119 85.1964L4.79971 83.8758L4.73395 84.1608C2.93332 91.2937 3.77408 98.8371 7.10101 105.399C10.4105 111.727 15.7857 116.067 22.2513 117.617C23.1714 117.838 24.1048 117.999 25.0457 118.1L46.5848 131.294L27.7963 191.352ZM63.5163 191.643L28.5803 190.788L47.2044 131.255L47.2702 131.036L25.2269 117.53H25.1612C24.2241 117.433 23.2943 117.276 22.3777 117.058C16.0546 115.541 10.8109 111.311 7.5836 105.13C4.36235 98.7849 3.51693 91.4968 5.20011 84.5827L10.6794 85.8977L10.7616 85.6402C11.5463 83.2388 12.6838 80.9674 14.1368 78.9006L39.8074 92.8893L52.4097 95.9193C52.1522 96.9494 51.8454 97.9686 51.4892 98.9604L51.4016 99.196L70.2723 109.481L73.5215 111.245C78.3429 114.811 80.9872 120.609 80.5185 126.587L79.598 130.176L63.5163 191.643Z" fill="#E25AF0"/>
<path d="M6.96431 223.214L4.02741 244.885C3.23374 250.709 6.93819 256.201 12.6354 257.646C15.6079 258.4 18.7582 257.942 21.3929 256.373C24.0277 254.804 25.9311 252.252 26.6843 249.279C26.8207 248.739 26.9195 248.19 26.9802 247.636L29.2103 225.883C29.7775 220.356 26.2071 215.248 20.8215 213.883C17.9426 213.151 14.8907 213.593 12.3379 215.112C9.78513 216.631 7.94072 219.102 7.21088 221.981C7.10718 222.388 7.02487 222.799 6.96431 223.214Z" fill="white"/>
<path fill-rule="evenodd" clip-rule="evenodd" d="M6.55167 254.232C8.80392 256.81 12.0616 258.287 15.4848 258.282L15.4793 258.304C21.5586 258.304 26.6525 253.705 27.2708 247.658L29.5008 225.905C29.9637 219.765 25.5113 214.349 19.398 213.615C13.2848 212.882 7.67722 217.09 6.67409 223.165L3.73719 244.836C3.27305 248.227 4.29943 251.654 6.55167 254.232ZM4.32364 244.885L7.26603 223.214C8.00494 217.256 13.4204 213.014 19.3828 213.724C25.3452 214.434 29.6127 219.829 28.9312 225.795L26.7011 247.548C26.6956 247.592 26.6883 247.636 26.681 247.679C26.6664 247.767 26.6518 247.855 26.6518 247.943C25.6884 253.996 20.0644 258.169 13.9919 257.338C7.91933 256.506 3.62439 250.974 4.32364 244.885Z" fill="#E25AF0"/>
<path d="M3.28796 244.085L1.36473 257.482C1.44416 258.329 2.15737 258.976 3.00852 258.972L47.5497 259.378C48.4576 259.378 49.1935 258.642 49.1935 257.734C49.1935 257.668 49.1935 257.608 49.1935 257.542C48.334 249.437 41.5359 243.263 33.3858 243.186L26.7229 243.121C19.6457 246.542 11.4132 246.639 4.2578 243.384C3.9113 243.225 3.50171 243.377 3.34276 243.723C3.29381 243.837 3.27494 243.962 3.28796 244.085Z" fill="#E25AF0"/>
<path d="M43.6702 163.419C41.7619 171.163 34.2389 176.153 26.3627 174.899C18.4865 173.646 12.8841 166.567 13.4738 158.614C13.5494 157.516 13.7441 156.43 14.0546 155.375C16.1906 148.013 23.4333 143.357 31.018 144.471C38.6027 145.584 44.2012 152.126 44.1305 159.792C44.1215 161.015 43.967 162.232 43.6702 163.419Z" fill="white"/>
<path fill-rule="evenodd" clip-rule="evenodd" d="M17.6992 170.72C20.6281 173.666 24.6075 175.326 28.7612 175.336L28.7502 175.309C35.9243 175.303 42.1792 170.429 43.9388 163.474C44.2406 162.28 44.3988 161.055 44.4101 159.824V159.77C44.3599 151.402 37.7342 144.556 29.373 144.232C21.0118 143.908 13.876 150.22 13.1781 158.559V158.608C13.1452 158.948 13.1452 159.293 13.1452 159.633C13.1321 163.786 14.7703 167.775 17.6992 170.72ZM26.4327 174.558C18.7336 173.342 13.2353 166.451 13.7587 158.674L13.7641 158.663C14.3426 150.573 21.2256 144.394 29.3312 144.69C37.4368 144.985 43.8519 151.648 43.84 159.759V159.808C43.8288 161.002 43.6761 162.19 43.3852 163.348L43.6702 163.419L43.3852 163.353C41.4863 170.913 34.1319 175.774 26.4327 174.558Z" fill="#E25AF0"/>
<path d="M50.9741 92.588L28.509 86.8785C27.251 86.5671 25.9771 87.3275 25.6543 88.5826L25.6214 88.7415V88.862L16.3614 86.6375C14.082 96.1331 16.2901 105.514 21.5119 111.963L13.797 155.271L13.4409 157.266L13.2053 158.57L0.334412 230.338L34.3718 238.978L43.9661 163.49L44.4318 159.808L49.8782 117.398L52.7001 95.3934L52.7275 95.1797C52.8839 93.9964 52.1307 92.883 50.9741 92.588Z" fill="white"/>
<path fill-rule="evenodd" clip-rule="evenodd" d="M0 230.557L34.6182 239.324L44.7275 159.896V159.863V159.83L52.9958 95.4427V95.229C53.1674 93.9044 52.323 92.6603 51.0287 92.3305L28.5636 86.621C27.1492 86.2648 25.7132 87.12 25.3527 88.5333L16.1037 86.3142L16.0379 86.5937C13.8243 95.7934 15.742 105.305 21.161 112.067L13.49 155.227L0 230.557ZM34.0981 238.595L0.646978 230.102L13.4685 158.652L21.7916 111.881L21.7039 111.777C16.389 105.218 14.4712 95.9742 16.5424 86.9882L25.8244 89.2183L25.8956 88.7964L25.9285 88.6539C26.0616 88.1246 26.3998 87.67 26.8686 87.3904C27.3373 87.1108 27.898 87.0291 28.427 87.1635L50.8921 92.8675C51.9002 93.1247 52.5583 94.093 52.4264 95.1249L44.1307 159.781V159.814L43.6704 163.441V163.49L34.0981 238.595Z" fill="#E25AF0"/>
<path d="M35.5717 61.6575C40.1176 61.6575 44.2157 64.3961 45.9548 68.5962C47.6939 72.7962 46.7314 77.6303 43.5163 80.8439C40.3011 84.0576 35.4665 85.0177 31.2673 83.2765C27.0681 81.5354 24.3314 77.4359 24.3337 72.89C24.3367 66.6856 29.3672 61.6575 35.5717 61.6575Z" fill="white"/>
<path fill-rule="evenodd" clip-rule="evenodd" d="M25.0678 77.6931C26.9459 81.7987 31.0515 84.4266 35.5663 84.413C40.8693 84.3969 45.4746 80.7586 46.7175 75.6033C47.9604 70.4479 45.5189 65.1108 40.8058 62.68C36.0926 60.2492 30.3286 61.3543 26.8487 65.356C23.8861 68.7628 23.1897 73.5874 25.0678 77.6931ZM25.781 77.8282C23.7922 73.864 24.3888 69.092 27.2925 65.7395C31.2471 61.1736 38.1508 60.6687 42.7277 64.6108C46.0881 67.5051 47.3727 72.1397 45.9817 76.351C44.5907 80.5623 40.7985 83.52 36.3752 83.8435C31.952 84.1669 27.7698 81.7924 25.781 77.8282Z" fill="#E25AF0"/>
<path d="M26.7939 65.8656L48.3768 40.8745L65.3627 55.559L43.7797 80.5501" fill="white"/>
<path d="M44.0262 80.7528L43.5824 80.3693L64.9517 55.6028L48.3877 41.3019L27.0185 66.0683L26.5746 65.6848L48.3439 40.48L65.7955 55.5481L44.0262 80.7528Z" fill="#E25AF0"/>
<path d="M19.0135 33.0828C25.2201 33.0828 30.2515 38.1142 30.2515 44.3208C30.2515 50.5274 25.2201 55.5588 19.0135 55.5588C12.8069 55.5588 7.77544 50.5274 7.77544 44.3208C7.77544 38.1142 12.8069 33.0828 19.0135 33.0828Z" fill="#75F880"/>
<path fill-rule="evenodd" clip-rule="evenodd" d="M7.72039 46.3339C8.69264 51.8211 13.4572 55.8229 19.0299 55.8328C23.1569 55.8402 26.9718 53.6368 29.0277 50.0583C31.0835 46.4798 31.0655 42.0743 28.9803 38.5128C26.1648 33.7037 20.3078 31.6034 15.0777 33.5274C9.84772 35.4514 6.74814 40.8466 7.72039 46.3339ZM8.41454 41.5088C9.69034 36.7134 14.0292 33.3737 18.9915 33.3677C22.8978 33.363 26.5113 35.438 28.4761 38.8141C30.9721 43.1029 30.2747 48.5337 26.7761 52.0527C23.2775 55.5717 17.8509 56.3006 13.5477 53.8295C9.24448 51.3585 7.13874 46.3042 8.41454 41.5088Z" fill="#75F880"/>
<path d="M9.08495 49.5809L28.52 38.2991L45.1004 66.8517L25.6653 78.1391L9.08495 49.5809Z" fill="#75F880"/>
<path fill-rule="evenodd" clip-rule="evenodd" d="M8.68499 49.5206L25.5612 78.5609L45.5004 66.9832L28.6242 37.9429L8.68499 49.5206ZM25.7748 77.7555L9.48484 49.7069L28.4103 38.7483L44.7003 66.7969L25.7748 77.7555Z" fill="#75F880"/>
<path d="M77.4446 40.0305C76.9694 39.4741 76.2914 39.1308 75.5617 39.0773C74.8319 39.0238 74.1111 39.2644 73.5598 39.7456L67.6202 44.8742C67.4507 44.3293 67.24 43.7981 66.9901 43.2852L72.3927 37.1648C72.8791 36.6191 73.1273 35.9017 73.082 35.1721C73.0367 34.4426 72.7017 33.7613 72.1516 33.28C71.6064 32.7912 70.8882 32.541 70.1572 32.5853C69.4263 32.6296 68.7436 32.9646 68.2613 33.5156L63.3847 39.0387C62.912 38.7042 62.4137 38.4074 61.8944 38.1511L65.949 31.428C66.458 30.5843 66.4782 29.5331 66.002 28.6705C65.5258 27.8079 64.6256 27.2648 63.6404 27.2459C62.6553 27.2269 61.7348 27.735 61.2259 28.5787L56.1466 37.0004C50.4965 37.3794 46.0121 41.9049 45.6845 47.5581C45.357 53.2114 49.2889 58.2245 54.8574 59.2534C60.4259 60.2823 65.8895 57.0053 67.6038 51.6082C68.1239 51.5305 68.6118 51.3084 69.012 50.9672L77.1706 43.9153C77.7271 43.4401 78.0703 42.7621 78.1238 42.0324C78.1773 41.3026 77.9367 40.5818 77.4556 40.0305H77.4446Z" fill="white"/>
<path fill-rule="evenodd" clip-rule="evenodd" d="M55.7302 59.6849C56.1192 59.7451 56.5137 59.7451 56.9082 59.7451H56.9137C61.867 59.7406 66.2615 56.5666 67.823 51.8659C68.3303 51.7637 68.8023 51.5315 69.1928 51.1919L77.357 44.1456C78.5985 43.0358 78.7212 41.1357 77.6329 39.8754C76.5445 38.6151 74.6468 38.4599 73.368 39.5265L67.7572 44.3702C67.636 44.0192 67.4952 43.6753 67.3353 43.3401L72.6119 37.3677C73.6823 36.0997 73.5435 34.2089 72.2994 33.1108C71.0553 32.0127 69.1619 32.1098 68.0367 33.3294L63.33 38.6553C62.9977 38.4309 62.6539 38.2243 62.2999 38.0361L66.1902 31.5815C66.9761 30.1467 66.4909 28.3473 65.0901 27.5021C63.6894 26.657 61.8713 27.0667 60.9684 28.4309L55.9658 36.7266C49.9257 37.0773 45.1889 42.0457 45.1268 48.0957C45.0647 54.1457 49.6985 59.2103 55.7302 59.6849ZM61.467 28.7323C61.9149 27.992 62.7168 27.5392 63.582 27.5378L63.5875 27.5762C64.0335 27.5808 64.4702 27.7037 64.8532 27.9323C65.4136 28.27 65.8168 28.8166 65.9741 29.4517C66.1313 30.0868 66.0297 30.7584 65.6915 31.3185L61.4725 38.3156L61.7574 38.4526C62.2634 38.7047 62.7489 38.996 63.2094 39.3238L63.4231 39.4717L68.475 33.7568C69.3829 32.7355 70.9468 32.6435 71.9681 33.5513C72.9894 34.4592 73.0814 36.0231 72.1735 37.0444L66.6395 43.3127L66.7216 43.488C66.9671 43.9859 67.1723 44.5026 67.3353 45.0332L67.4723 45.4606L73.7461 40.0361C74.7773 39.1474 76.3331 39.2601 77.2255 40.2881C78.1141 41.3194 78.0014 42.8751 76.9734 43.7675L68.8093 50.8139C68.4516 51.1121 68.0163 51.3022 67.5545 51.3618H67.3737L67.3189 51.5371C65.6488 56.8067 60.3154 60.0073 54.8797 59.0021C49.444 57.9969 45.608 53.1007 45.9328 47.5823C46.2575 42.064 50.6415 37.6516 56.1576 37.291H56.311L61.467 28.7323Z" fill="#E25AF0"/>
<path d="M58.4918 29.9708C59.1242 30.3415 59.5816 30.9502 59.7618 31.6607C59.942 32.3712 59.8299 33.1242 59.4507 33.7515L53.9276 43.017C53.5559 43.6484 52.9469 44.1046 52.2365 44.2838C51.5261 44.4629 50.7735 44.3501 50.1469 43.9704C49.5155 43.5988 49.0592 42.9897 48.8801 42.2793C48.7009 41.5689 48.8138 40.8163 49.1935 40.1897L54.7111 30.9297C55.0819 30.2974 55.6905 29.84 56.401 29.6598C57.1115 29.4796 57.8646 29.5916 58.4918 29.9708Z" fill="white"/>
<path fill-rule="evenodd" clip-rule="evenodd" d="M50.0041 44.2278C50.4751 44.5073 51.0126 44.6549 51.5602 44.6552C52.635 44.655 53.6311 44.0915 54.1848 43.1703L59.7025 33.9048C60.3161 32.967 60.3663 31.7682 59.8333 30.7824C59.3003 29.7965 58.2698 29.182 57.149 29.1819C56.0282 29.1817 54.9976 29.7959 54.4643 30.7816L48.9411 40.0471C48.0844 41.4957 48.5595 43.3643 50.0041 44.2278ZM53.681 42.869C52.9837 44.0353 51.4742 44.4176 50.3058 43.7237C49.7435 43.3907 49.3369 42.8478 49.1755 42.2146C49.0141 41.5814 49.1113 40.91 49.4455 40.3485L54.9632 31.083C54.9738 31.066 54.9836 31.049 54.9932 31.0323C55.0084 31.006 55.0231 30.9804 55.0399 30.957C55.7877 29.8511 57.2799 29.5413 58.4061 30.258C59.5324 30.9748 59.8837 32.4577 59.1987 33.6035L53.681 42.869Z" fill="#E25AF0"/>
<path d="M52.7439 95.6838L4.99184 84.2157C8.62462 69.0983 22.2626 59.4109 35.4458 62.5779C48.629 65.745 56.3767 80.5719 52.7439 95.6838Z" fill="#75F880"/>
<path fill-rule="evenodd" clip-rule="evenodd" d="M4.64115 84.4293L52.9631 96.0399L53.0288 95.755C54.83 88.6221 53.9892 81.0785 50.6618 74.5172C47.3523 68.1886 41.9716 63.849 35.5115 62.2984C22.1913 59.0985 8.37255 68.8955 4.71238 84.1444L4.64115 84.4293ZM52.5244 95.3221L5.34766 83.9854C9.04071 69.2078 22.454 59.745 35.3742 62.8518C41.6699 64.3641 46.9136 68.5941 50.1409 74.7747C53.3622 81.1199 54.2076 88.408 52.5244 95.3221Z" fill="#75F880"/>
<path d="M52.3931 83.8869L10.6682 73.8598L12.312 44.0689C12.5091 41.7199 13.3155 39.463 14.6517 37.5211C16.8434 34.376 20.1748 32.661 23.3309 33.4226L59.56 42.1237C62.7161 42.8853 64.8914 45.9099 65.4338 49.7235C65.7402 52.0592 65.4343 54.4345 64.5462 56.6165L52.3931 83.8869Z" fill="#75F880"/>
<path fill-rule="evenodd" clip-rule="evenodd" d="M10.3726 74.09L52.5632 84.2267L64.8204 56.7261C65.7248 54.4966 66.0363 52.0709 65.7245 49.6852C65.1437 45.6141 62.8095 42.6115 59.6315 41.8443L23.4024 33.1432C20.2244 32.3761 16.7779 33.9925 14.4108 37.3568C13.0452 39.3452 12.2201 41.6544 12.0164 44.058L10.3726 74.09ZM52.2287 83.5473L10.9751 73.6352L12.6024 44.1018C12.7943 41.8027 13.5818 39.5932 14.8873 37.691C17.1174 34.5295 20.3282 33.0008 23.2651 33.7076L59.4943 42.4142C62.4366 43.1155 64.601 45.9319 65.1489 49.7674C65.4458 52.0492 65.1476 54.369 64.2832 56.5015L52.2287 83.5473Z" fill="#75F880"/>
<path d="M21.0353 32.8801L61.7958 42.6936C67.5066 44.0704 71.0212 49.8145 69.6476 55.5261L69.3079 56.9343C67.9311 62.645 62.187 66.1597 56.4754 64.7861L15.7149 55.0001C10.0049 53.6258 6.4897 47.8833 7.86306 42.173L8.20278 40.7594C9.57962 35.0486 15.3238 31.5339 21.0353 32.9075V32.8801Z" fill="#75F880"/>
<path fill-rule="evenodd" clip-rule="evenodd" d="M56.4369 65.06C57.2802 65.2639 58.1447 65.3669 59.0122 65.3669V65.3449C64.0582 65.3273 68.4398 61.8663 69.6256 56.9616L69.9598 55.548C71.3407 49.687 67.7342 43.8098 61.8834 42.3867L21.1064 32.5897C15.2382 31.195 9.3461 34.8047 7.92322 40.6662L7.5835 42.0798C6.18884 47.9481 9.79853 53.8402 15.66 55.263L56.4369 65.06ZM8.49318 40.8032C9.61572 36.1559 13.7722 32.88 18.5532 32.8746L18.5806 32.8472C19.3943 32.8484 20.2052 32.944 20.9969 33.1322L61.7739 42.9291C67.3291 44.2683 70.7497 49.8541 69.4175 55.411L69.0778 56.8192C68.4433 59.4925 66.7713 61.8035 64.4308 63.2426C62.0902 64.6817 59.2733 65.1306 56.6014 64.4902L15.8245 54.6932C13.1512 54.0587 10.8401 52.3868 9.40102 50.0462C7.96194 47.7056 7.51309 44.8887 8.15346 42.2168L8.49318 40.8032Z" fill="#75F880"/>
<path d="M36.8098 27.3352L46.8095 30.431L44.4096 38.1678C43.9996 39.5003 43.0749 40.6142 41.8405 41.2623C40.6061 41.9104 39.1641 42.039 37.8344 41.6197C36.502 41.2099 35.3884 40.2849 34.7412 39.0502C34.0941 37.8155 33.9669 36.3735 34.3879 35.0446L36.8098 27.3352Z" fill="white"/>
<path fill-rule="evenodd" clip-rule="evenodd" d="M37.7524 41.8991C38.2846 42.0644 38.8389 42.1476 39.3962 42.1457C41.8095 42.1404 43.9416 40.5734 44.6673 38.2718L47.1494 30.2556L36.5908 26.968L34.1087 34.9842C33.2097 37.8995 34.8395 40.9925 37.7524 41.8991ZM41.7024 40.9982C40.5414 41.609 39.185 41.7321 37.933 41.3402C36.6806 40.954 35.6334 40.0852 35.0227 38.9255C34.412 37.7658 34.2881 36.4108 34.6783 35.1596L36.9851 27.7022L46.426 30.6282L44.1192 38.0855C43.7331 39.3392 42.8633 40.3874 41.7024 40.9982Z" fill="#E25AF0"/>
<path d="M41.8836 3.73584C48.1071 3.73584 53.154 8.77778 53.16 15.0013V21.7737C53.1615 24.7653 51.9741 27.6349 49.8592 29.7509C47.7443 31.8668 44.8753 33.0556 41.8836 33.0556C35.6528 33.0556 30.6018 28.0045 30.6018 21.7737V15.0013C30.6108 8.77689 35.6593 3.73583 41.8836 3.73584V3.73584Z" fill="white"/>
<path fill-rule="evenodd" clip-rule="evenodd" d="M30.3114 21.7901C30.3175 28.1788 35.495 33.3563 41.8837 33.3624C48.2788 33.3563 53.459 28.1688 53.456 21.7736V15.0012C53.456 8.61004 48.2749 3.42896 41.8837 3.42896C35.4925 3.42896 30.3114 8.61004 30.3114 15.0012V21.7901ZM30.898 14.9903C30.9191 8.93608 35.8298 4.03767 41.884 4.03168L41.9114 4.04263C47.9549 4.06368 52.849 8.9577 52.87 15.0012V21.7627C52.87 27.8301 47.9514 32.7487 41.884 32.7487C35.8166 32.7487 30.898 27.8301 30.898 21.7627V14.9903Z" fill="#E25AF0"/>
<path d="M53.0998 11.2698C53.1013 7.46621 51.1833 3.91875 48 1.83705C44.8167 -0.24465 40.7979 -0.579471 37.3139 0.946759C37.1865 0.972212 37.063 1.0146 36.9468 1.07278L23.6595 7.80136C19.5591 9.8558 16.8566 13.9316 16.56 18.5083C16.2635 23.085 18.4175 27.4754 22.2185 30.0418C28.9446 34.5829 38.0781 32.8146 42.6234 26.0913C42.8718 25.726 43.1019 25.3479 43.3138 24.957L44.8261 22.2174V22.1352C49.7152 20.7885 53.1018 16.341 53.0998 11.2698Z" fill="#E25AF0"/>
<path d="M48.0754 16.8475V19.9324C48.0828 20.5184 47.8551 21.0829 47.4433 21.4999C47.0314 21.9169 46.4698 22.1516 45.8837 22.1515C45.2977 22.1588 44.7332 21.9312 44.3162 21.5193C43.8992 21.1075 43.6646 20.5458 43.6646 19.9598V16.853C43.6646 16.267 43.8992 15.7053 44.3162 15.2935C44.7332 14.8817 45.2977 14.654 45.8837 14.6613C47.092 14.6613 48.0724 15.6392 48.0754 16.8475Z" fill="white"/>
<path fill-rule="evenodd" clip-rule="evenodd" d="M43.3466 19.9544C43.3466 21.3412 44.4692 22.4663 45.8561 22.4694C46.526 22.4665 47.1673 22.1975 47.639 21.7218C48.1107 21.246 48.374 20.6024 48.3711 19.9324V16.8476C48.3084 15.5057 47.2022 14.45 45.8588 14.45C44.5155 14.45 43.4092 15.5057 43.3466 16.8476V19.9544ZM43.9331 16.8476C43.9331 15.7854 44.7942 14.9244 45.8563 14.9244C46.913 14.9334 47.7656 15.7909 47.7686 16.8476V19.9598C47.6637 20.94 46.8366 21.6833 45.8508 21.6833C44.8651 21.6833 44.038 20.94 43.9331 19.9598V16.8476Z" fill="#E25AF0"/>
<path d="M99.9471 96.3853C100.074 95.6633 99.9058 94.9206 99.4808 94.3234C99.0557 93.7261 98.409 93.3241 97.6853 93.2073L89.9428 91.9073C90.256 91.4302 90.5309 90.929 90.7647 90.4085L98.9244 90.6659C100.446 90.7144 101.718 89.5203 101.767 87.9989C101.815 86.4775 100.621 85.2049 99.1 85.1564L91.7358 84.9232C91.6883 84.3453 91.6005 83.7714 91.4731 83.2057L99.2373 82.0405C100.745 81.8137 101.783 80.4077 101.556 78.9002C101.329 77.3926 99.9233 76.3544 98.4158 76.5813L88.6891 78.0484C86.6246 75.862 83.7676 74.5977 80.7612 74.5399L47.7334 73.8394C41.7104 73.9612 36.8558 78.8127 36.7303 84.8356C36.6047 90.8585 41.2528 95.9081 47.2655 96.2808L79.9658 96.9466L80.1833 96.9514L80.2689 96.9517C81.7886 96.9797 83.298 96.6979 84.7053 96.1236C85.0952 96.4742 85.5767 96.707 86.0937 96.795L96.7286 98.5811C97.4506 98.7088 98.1936 98.5419 98.7915 98.1176C99.3895 97.6934 99.7924 97.0471 99.9102 96.3235L99.9471 96.3853Z" fill="white"/>
<path fill-rule="evenodd" clip-rule="evenodd" d="M37.4048 80.414C35.6221 84.4136 36.2556 89.0774 39.0405 92.4566C41.0222 94.8707 43.9024 96.3725 47.0163 96.6155L80.0069 97.2969L80.1507 97.2988L80.6327 97.3052C82.0318 97.3008 83.418 97.038 84.7216 96.53C85.1268 96.8538 85.607 97.0703 86.1179 97.1594L96.7564 98.9496C97.8312 99.1258 98.9184 98.7151 99.6083 97.8723C100.298 97.0296 100.486 95.8827 100.101 94.8638C99.7165 93.8449 98.8172 93.1088 97.7424 92.9326L90.4332 91.7006C90.6267 91.3817 90.8031 91.0527 90.9617 90.7151L98.9271 90.9698C100.61 91.0238 102.018 89.7032 102.073 88.02C102.127 86.3369 100.806 84.9286 99.1227 84.8746L92.0111 84.6457C91.9743 84.2464 91.9141 83.8496 91.8309 83.4574L99.2877 82.3334C99.305 82.3325 99.3221 82.3302 99.339 82.3265C101.001 82.0583 102.131 80.4937 101.862 78.8318C101.594 77.1699 100.03 76.0402 98.3677 76.3084L88.7877 77.7464C86.7451 75.643 83.9767 74.3986 81.0476 74.2674L47.7504 73.5766L47.4544 73.5799C43.0795 73.7677 39.1875 76.4144 37.4048 80.414ZM47.7506 74.1523L47.8909 74.1499L80.4655 74.8273L80.7531 74.831C81.3895 74.846 82.0235 74.9134 82.6488 75.0326C84.8796 75.4676 86.9176 76.5916 88.4758 78.2461L88.5737 78.3643L98.4541 76.8767L98.5762 76.8609C99.9278 76.6925 101.16 77.6516 101.328 79.0032C101.497 80.3548 100.538 81.587 99.1862 81.7555L91.1061 82.9687L91.1781 83.279C91.3104 83.8278 91.3971 84.3865 91.4374 84.9495L91.4556 85.212L99.0835 85.4544C100.448 85.5032 101.515 86.6489 101.466 88.0134C101.417 89.3778 100.271 90.4444 98.9069 90.3956L90.5536 90.1278L90.4745 90.3072C90.2452 90.8145 89.9767 91.3032 89.6716 91.7688L89.4298 92.1469L97.6092 93.5192C98.2546 93.6271 98.8306 93.987 99.2104 94.5198C99.5902 95.0526 99.7427 95.7145 99.6342 96.3597C99.4048 97.7018 98.133 98.6054 96.7902 98.3805L86.1594 96.591C85.7014 96.5063 85.2773 96.2922 84.9371 95.974L84.8007 95.8523L84.6307 95.9219C83.2561 96.4773 81.7818 96.744 80.2997 96.7055L79.9847 96.7031L47.577 96.0298L47.2986 96.0114C41.5667 95.4911 37.214 90.6253 37.333 84.8711C37.452 79.1169 42.0021 74.4352 47.7506 74.1523Z" fill="#E25AF0"/>
<rect x="77.216" y="86.7986" width="16.3064" height="5.51765" rx="2.75883" transform="rotate(9.55148 77.216 86.7986)" fill="white"/>
<path fill-rule="evenodd" clip-rule="evenodd" d="M76.5577 89.2937C76.4098 90.1674 76.6495 91.0622 77.2145 91.7449C77.681 92.309 78.3346 92.6868 79.0563 92.8092L89.6913 94.5952C91.3379 94.8436 92.8796 93.7263 93.1561 92.0842C93.4326 90.4421 92.3418 88.8815 90.7047 88.5769L80.0697 86.7909C78.4091 86.5137 76.8377 87.6335 76.5577 89.2937ZM79.1538 92.231C77.8133 92.0026 76.9108 90.7321 77.1364 89.3911C77.2438 88.7466 77.6032 88.1713 78.1353 87.7921C78.6674 87.4128 79.3285 87.2608 79.9728 87.3696L90.6077 89.1557C90.6389 89.1573 90.6698 89.1628 90.6996 89.1721C92.0076 89.4522 92.8537 90.7241 92.6065 92.0387C92.3594 93.3533 91.1091 94.2311 89.7887 94.017L79.1538 92.231Z" fill="#E25AF0"/>
<path d="M69.9383 57.9913L70.0791 57.6115C71.9633 51.8664 68.9618 45.6606 63.2883 43.5708C57.6147 41.481 51.3049 44.2571 49.0122 49.8517L37.5962 80.8329L60.3886 83.8983L69.9383 57.9913Z" fill="#75F880"/>
<path fill-rule="evenodd" clip-rule="evenodd" d="M48.8232 49.4602L37.1709 81.0496L60.5322 84.1918L70.1694 58.0985L69.8947 57.9987L70.1793 58.076L70.4086 57.4166C72.4113 51.5097 69.3431 45.0827 63.4909 42.9256C57.6387 40.7684 51.1333 43.6666 48.8232 49.4602ZM37.975 80.5688L49.1661 50.2007L49.275 49.9113C51.6607 44.6989 57.6603 42.2059 63.0374 44.1925C68.4145 46.1791 71.352 51.9742 69.7756 57.4855L69.7394 57.6222L60.1617 83.5383L37.975 80.5688Z" fill="#E25AF0"/>
</svg>
