<svg width="24" height="24" viewBox="0 0 24 24" fill="none" xmlns="http://www.w3.org/2000/svg">
<path d="M17.5 4H6.5C5.1215 4 4 5.1215 4 6.5V7.75C4 8.09519 4.27981 8.375 4.625 8.375C4.97019 8.375 5.25 8.09519 5.25 7.75V6.5C5.25 5.81075 5.81075 5.25 6.5 5.25H17.5C18.1892 5.25 18.75 5.81075 18.75 6.5V17.5C18.75 18.1892 18.1892 18.75 17.5 18.75H6.5C5.81075 18.75 5.25 18.1892 5.25 17.5V16.25C5.25 15.9048 4.97019 15.625 4.625 15.625C4.27981 15.625 4 15.9048 4 16.25V17.5C4 18.8785 5.1215 20 6.5 20H17.5C18.8785 20 20 18.8785 20 17.5V6.5C20 5.1215 18.8785 4 17.5 4Z" fill="white"/>
<path d="M14.4975 10.674L12.1605 8.33911C11.9163 8.09514 11.5206 8.09532 11.2766 8.33951C11.0326 8.5837 11.0328 8.97942 11.277 9.22339L13.6138 11.558C13.8575 11.8017 13.8575 12.1982 13.6138 12.4419C13.6129 12.4428 13.612 12.4438 13.6111 12.4447L11.2741 14.8108C11.0315 15.0564 11.034 15.4521 11.2796 15.6947C11.4014 15.815 11.5601 15.875 11.7187 15.875C11.88 15.875 12.0412 15.813 12.1634 15.6892L14.4992 13.3243C15.2288 12.5931 15.2283 11.4048 14.4975 10.674Z" fill="white"/>
<path d="M11.2812 11.375H4.625C4.27981 11.375 4 11.6548 4 12C4 12.3452 4.27981 12.625 4.625 12.625H11.2812C11.6264 12.625 11.9062 12.3452 11.9062 12C11.9062 11.6548 11.6264 11.375 11.2812 11.375Z" fill="white"/>
</svg>
