<svg width="222" height="59" viewBox="0 0 222 59" fill="none" xmlns="http://www.w3.org/2000/svg">
<path d="M16.4 59.0001H0V0.360107H16.4V13.8801H10.56V6.28011H5.84V53.0801H10.56V45.4801H16.4V59.0001Z" fill="#75F880"/>
<path d="M33.3725 0.52011H39.2125V40.4401H33.9325V59.0001H28.0925V40.4401H22.8125V0.52011H28.6525V34.5201H33.3725V0.52011Z" fill="#75F880"/>
<path d="M62.025 59.0001H45.625V0.440106H62.025V19.4001L58.745 23.4801L62.025 25.3201V59.0001ZM51.465 53.1601H56.185V28.7601L51.465 26.2001V53.1601ZM51.465 6.28011V23.1601L56.185 17.3201V6.28011H51.465Z" fill="#75F880"/>
<path d="M84.8375 13.8801H78.9975V6.28011H74.2775V28.1201H80.5975V33.9601H74.2775V53.1601H78.9975V37.6401H84.8375V59.0001H68.4375V0.440106H84.8375V13.8801Z" fill="#75F880"/>
<path d="M105.33 48.4401L110.21 59.0001H103.73L98.93 48.4401H97.09V59.0001H91.25V0.440106H107.65V48.4401H105.33ZM101.81 42.6001V6.28011H97.09V42.6001H101.81Z" fill="#75F880"/>
<path d="M130.619 59.0001H114.219V0.360107H130.619V13.8801H124.779V6.28011H120.059V53.0801H124.779V45.4801H130.619V59.0001Z" fill="#75F880"/>
<path d="M153.431 59.0001H137.031V0.360107H142.871V53.0801H153.431V59.0001Z" fill="#75F880"/>
<path d="M159.844 0.440106H176.244V59.0001H170.404V37.8801H165.684V59.0001H159.844V0.440106ZM165.684 32.0401H170.404V6.28011H165.684V32.0401Z" fill="#75F880"/>
<path d="M199.056 21.5601V59.0001H182.656V45.5601H188.496V53.1601H193.216V27.4001H182.656V0.440106H199.056V13.8801H193.216V6.28011H188.496V21.5601H199.056Z" fill="#75F880"/>
<path d="M221.869 21.5601V59.0001H205.469V45.5601H211.309V53.1601H216.029V27.4001H205.469V0.440106H221.869V13.8801H216.029V6.28011H211.309V21.5601H221.869Z" fill="#75F880"/>
</svg>
