<svg width="24" height="24" viewBox="0 0 24 24" fill="none" xmlns="http://www.w3.org/2000/svg">
<path fill-rule="evenodd" clip-rule="evenodd" d="M13.825 12.834C13.069 13.589 12.065 14.006 10.997 14.006C9.929 14.006 8.925 13.589 8.169 12.834C6.608 11.273 6.608 8.733 8.169 7.172C8.925 6.416 9.929 6 10.997 6C12.065 6 13.069 6.416 13.825 7.172C15.386 8.733 15.386 11.273 13.825 12.834ZM15.877 13.466C17.538 11.123 17.336 7.855 15.239 5.758C14.106 4.624 12.599 4 10.997 4C9.394 4 7.888 4.624 6.755 5.758C4.415 8.099 4.415 11.907 6.755 14.248C7.888 15.381 9.394 16.006 10.997 16.006C12.262 16.006 13.464 15.611 14.473 14.89L19.29 19.707C19.485 19.902 19.741 20 19.997 20C20.253 20 20.509 19.902 20.704 19.707C21.095 19.316 21.095 18.683 20.704 18.292L15.877 13.466Z" fill="white"/>
</svg>
