<svg width="23" height="18" viewBox="0 0 23 18" fill="none" xmlns="http://www.w3.org/2000/svg">
<g clip-path="url(#clip0)">
<path d="M11.5052 4.95684C8.24001 4.95684 5.60631 6.76035 5.60631 8.99629C5.60631 11.2322 8.24001 13.0357 11.5052 13.0357C14.7704 13.0357 17.4041 11.2322 17.4041 8.99629C17.4041 6.76035 14.7704 4.95684 11.5052 4.95684ZM11.5052 11.6225C9.39514 11.6225 7.67015 10.4447 7.67015 8.99629C7.67015 7.54785 9.39001 6.37012 11.5052 6.37012C13.6204 6.37012 15.3402 7.54785 15.3402 8.99629C15.3402 10.4447 13.6152 11.6225 11.5052 11.6225ZM19.0212 4.7916C19.0212 5.31543 18.4052 5.73379 17.6454 5.73379C16.8804 5.73379 16.2695 5.31191 16.2695 4.7916C16.2695 4.27129 16.8855 3.84941 17.6454 3.84941C18.4052 3.84941 19.0212 4.27129 19.0212 4.7916ZM22.9282 5.74785C22.8409 4.48574 22.4199 3.36777 21.0697 2.44668C19.7246 1.52559 18.092 1.2373 16.2489 1.17402C14.3494 1.1002 8.65586 1.1002 6.75631 1.17402C4.91836 1.23379 3.28578 1.52207 1.93555 2.44316C0.585333 3.36426 0.169486 4.48223 0.0770751 5.74434C-0.0307373 7.04512 -0.0307373 10.9439 0.0770751 12.2447C0.164352 13.5068 0.585333 14.6248 1.93555 15.5459C3.28578 16.467 4.91323 16.7553 6.75631 16.8186C8.65586 16.8924 14.3494 16.8924 16.2489 16.8186C18.092 16.7588 19.7246 16.4705 21.0697 15.5459C22.4148 14.6248 22.8358 13.5068 22.9282 12.2447C23.036 10.9439 23.036 7.04863 22.9282 5.74785ZM20.4741 13.6404C20.0737 14.3295 19.2985 14.8604 18.2871 15.1381C16.7726 15.5494 13.1788 15.4545 11.5052 15.4545C9.83153 15.4545 6.23265 15.5459 4.72327 15.1381C3.71703 14.8639 2.9418 14.333 2.53622 13.6404C1.93555 12.6033 2.07417 10.1424 2.07417 8.99629C2.07417 7.8502 1.94069 5.38574 2.53622 4.35215C2.93667 3.66309 3.71189 3.13223 4.72327 2.85449C6.23778 2.44316 9.83153 2.53809 11.5052 2.53809C13.1788 2.53809 16.7777 2.44668 18.2871 2.85449C19.2933 3.12871 20.0686 3.65957 20.4741 4.35215C21.0748 5.38926 20.9362 7.8502 20.9362 8.99629C20.9362 10.1424 21.0748 12.6068 20.4741 13.6404Z" fill="white"/>
</g>
<defs>
<clipPath id="clip0">
<rect width="23" height="18" fill="white"/>
</clipPath>
</defs>
</svg>
