<svg width="23" height="18" viewBox="0 0 23 18" fill="none" xmlns="http://www.w3.org/2000/svg">
<path d="M21.9481 4.36229C21.6973 3.53085 20.9583 2.87603 20.0201 2.6538C18.3194 2.25 11.5 2.25 11.5 2.25C11.5 2.25 4.68069 2.25 2.98001 2.6538C2.04176 2.87606 1.3028 3.53085 1.052 4.36229C0.596313 5.86934 0.596313 9.01364 0.596313 9.01364C0.596313 9.01364 0.596313 12.1579 1.052 13.665C1.3028 14.4964 2.04176 15.124 2.98001 15.3462C4.68069 15.75 11.5 15.75 11.5 15.75C11.5 15.75 18.3194 15.75 20.0201 15.3462C20.9583 15.124 21.6973 14.4964 21.9481 13.665C22.4037 12.1579 22.4037 9.01364 22.4037 9.01364C22.4037 9.01364 22.4037 5.86934 21.9481 4.36229ZM9.26971 11.8684V6.15885L14.9694 9.01371L9.26971 11.8684Z" fill="white"/>
</svg>
