<svg width="48" height="48" viewBox="0 0 48 48" fill="none" xmlns="http://www.w3.org/2000/svg">
<path d="M47.5141 6.82161C47.0497 6.56324 46.4567 6.71736 46.1893 7.16587L41.7893 14.5452C41.3891 14.4964 40.9871 14.497 40.5924 14.5467C40.5907 14.5469 40.5892 14.5469 40.5875 14.5472C40.315 14.5819 40.0459 14.6389 39.7841 14.7216L39.2748 14.8823L38.1074 15.1845C37.5132 15.2368 36.8751 15.1002 36.3171 14.789L31.145 11.9019C30.4924 11.5376 30.2682 10.7283 30.6449 10.0977L31.6015 8.49675C31.6016 8.49665 31.6017 8.49656 31.6017 8.49637L35.8495 1.40706C36.1179 0.959117 35.9597 0.385646 35.4961 0.126238C35.0325 -0.132982 34.439 0.0197378 34.1706 0.467771L30.4082 6.7469L29.9662 6.50033C28.0725 5.44376 12.4188 2.62844 9.29984 2.07494C9.29325 2.07372 9.28665 2.07269 9.28005 2.07156C7.41822 1.7799 5.65554 2.52653 4.79031 3.97469L3.19412 6.64658C2.08566 8.50162 2.84562 10.9532 4.87947 12.2241L4.49799 12.8627C4.16909 13.4132 4.08167 14.0545 4.25194 14.6685C4.42221 15.2826 4.8298 15.7957 5.39951 16.1135L5.6016 16.2263C5.98115 16.4381 6.40222 16.5462 6.82911 16.5462C7.04304 16.5462 7.25833 16.519 7.47061 16.4639C8.106 16.2994 8.63709 15.9057 8.96599 15.3552L9.34399 14.7224L11.6289 15.9972C8.54066 16.9929 5.7709 18.8507 3.71988 21.3268C3.22963 21.9186 2.78528 22.5419 2.3872 23.1903C2.36139 23.226 2.33869 23.2636 2.31822 23.3024C1.15368 25.2338 0.404868 27.3859 0.124866 29.6094C0.119724 29.6394 0.116037 29.6694 0.113903 29.6995C0.0389054 30.3221 0 30.95 0 31.5803C0 35.8431 1.6903 39.7314 4.45666 42.6532C4.50391 42.7161 4.55872 42.7736 4.62082 42.8236C6.42026 44.6714 8.6563 46.118 11.1687 47.0063C11.2083 47.0227 11.2488 47.0366 11.2901 47.0478C13.0735 47.6635 14.993 48 16.9926 48C19.2216 48 21.3512 47.5824 23.3033 46.8252C23.3537 46.8096 23.403 46.7905 23.4503 46.767C25.8457 45.8124 27.9674 44.3437 29.6675 42.5036C29.7263 42.4533 29.7785 42.3964 29.8231 42.3343C32.4145 39.4513 33.9852 35.6896 33.9852 31.5802C33.9852 30.9743 33.9485 30.3654 33.8802 29.7651C33.879 29.7519 33.8774 29.7387 33.8756 29.7256C33.8664 29.6466 33.8588 29.5673 33.8484 29.4886C33.8472 29.4794 33.8458 29.4704 33.8444 29.4613L33.7329 28.7758L33.9936 28.3394C34.522 28.5201 35.064 28.6092 35.5945 28.6092C37.0573 28.6092 38.428 27.9424 39.1566 26.723L40.7531 24.051L44.5055 17.7705C45.036 16.8824 44.6688 15.7143 43.6868 15.1665C43.6795 15.1625 43.672 15.1589 43.6647 15.1549L47.8702 8.10159C48.1378 7.65318 47.9783 7.08008 47.5141 6.82161ZM24.34 6.89971L25.1533 9.83279L23.7647 9.59991L22.9325 6.59868C23.4209 6.70143 23.8915 6.80202 24.34 6.89971ZM17.2657 5.46148L18.1385 8.60915L16.7499 8.37628L15.8672 5.19308C16.3334 5.28204 16.8003 5.37167 17.2657 5.46148ZM7.2855 14.4179C7.21564 14.5348 7.1029 14.6185 6.96814 14.6532C6.83328 14.6883 6.6925 14.6703 6.57152 14.6028L6.36942 14.49C6.36942 14.49 6.36942 14.49 6.36933 14.49C6.24844 14.4225 6.1619 14.3136 6.1259 14.1834C6.08971 14.0531 6.10824 13.9169 6.1781 13.8001L6.55609 13.1673L7.66368 13.7852L7.2855 14.4179ZM11.8595 17.9007L9.65184 21.599L5.30375 22.3881C6.99201 20.3819 9.23765 18.8121 11.8595 17.9007ZM15.1272 21.1742C15.979 21.1742 16.8086 20.7473 17.2643 19.9847L17.6423 19.3519L19.8845 20.603C20.6592 21.0352 21.5481 21.1839 22.3872 21.0221C22.7617 20.9498 23.1853 21.0247 23.5493 21.2279L26.2318 22.7244C27.1268 23.2237 27.8164 24.0134 28.1239 24.8911C28.1995 25.1068 28.3537 25.2884 28.5577 25.4022L29.4831 25.9185L29.0874 26.5808C28.4083 27.7173 28.8128 29.1757 29.9888 29.8317L29.9889 29.8318L30.1909 29.9444C30.4904 30.1116 30.8116 30.2099 31.1351 30.2462L27.5501 33.7407L22.7685 32.7034L22.2595 31.1897L21.1703 27.9505L22.827 25.5179C23.1214 25.0855 22.9975 24.5043 22.55 24.2196C22.1027 23.9353 21.501 24.0549 21.2064 24.4873L19.5809 26.8743H14.4079L11.4066 22.4113L12.861 19.9748C13.0702 20.288 13.3543 20.5513 13.698 20.743L13.9001 20.8557C14.2868 21.0718 14.7096 21.1742 15.1272 21.1742ZM14.4765 18.4297L14.8545 17.797L15.5299 18.1738L15.9621 18.4149L15.5842 19.0476C15.44 19.2888 15.1197 19.3718 14.8701 19.2327L14.668 19.1199C14.668 19.1198 14.6679 19.1198 14.6678 19.1198C14.5468 19.0523 14.4604 18.9434 14.4243 18.8131C14.3882 18.6829 14.4066 18.5466 14.4765 18.4297ZM20.8764 33.143L18.9424 34.5008L17.0084 35.8586L13.1403 33.143L14.6178 28.749H19.3989L20.8764 33.143ZM3.78517 24.5712L9.80979 23.4778L12.8157 27.9475L11.2164 32.7035L7.28967 33.5554L6.44035 33.7397L2.10167 29.4345C2.36479 27.7005 2.94284 26.0588 3.78517 24.5712ZM4.54727 39.7529C2.97282 37.5214 2.02337 34.8468 1.94537 31.9661L5.10699 35.1033L4.54727 39.7529ZM6.25804 41.7658L7.00772 35.5378L11.5321 34.5562L11.7528 34.5083L16.0065 37.4947V41.9067L11.4121 45.0887C9.45983 44.333 7.70841 43.1928 6.25804 41.7658ZM16.9925 46.1254C15.8761 46.1255 14.7881 46.0064 13.7406 45.7825L17.0336 43.5019L20.7108 45.6759C19.5211 45.9691 18.2754 46.1254 16.9925 46.1254ZM23.0825 44.8805L17.9784 41.8628V37.4947L21.1099 35.2963L22.2323 34.5084L22.5381 34.5747L27.0073 35.5444L27.9929 41.4975C26.6168 42.9216 24.9491 44.0793 23.0825 44.8805ZM29.624 39.4824L28.897 35.0908L32.0373 32.0298C31.9505 34.7709 31.0755 37.3232 29.624 39.4824ZM31.875 28.1362C31.7308 28.3774 31.4104 28.4604 31.1606 28.321L30.9586 28.2084C30.7092 28.069 30.6233 27.7595 30.7673 27.5182L31.1453 26.8854L32.2529 27.5033L31.875 28.1362ZM34.1275 26.345L29.8277 23.9462C29.3237 22.7721 28.4028 21.771 27.202 21.101L24.5195 19.6045C23.742 19.1707 22.8498 19.0212 22.0075 19.1838C21.636 19.2558 21.216 19.1812 20.8547 18.9796L17.7725 17.2602C17.7724 17.2602 17.7724 17.2601 17.7723 17.2601L16.8144 16.7257L9.47468 12.6309C9.47439 12.6307 9.47419 12.6305 9.4739 12.6304L6.68629 11.0752C6.6861 11.0751 6.68581 11.075 6.68562 11.0749L6.07089 10.7319C4.87055 10.0622 4.32548 8.76816 4.78158 7.76249C5.19149 8.52694 5.84231 9.20625 6.69735 9.68325L21.4815 17.9311C22.2562 18.3633 23.1451 18.512 23.9843 18.3502C24.3585 18.2775 24.7822 18.3527 25.1463 18.5559L27.8287 20.0524C28.7236 20.5517 29.4133 21.3414 29.7208 22.2191C29.7964 22.4348 29.9506 22.6164 30.1546 22.7302L34.7542 25.2964C35.5153 25.721 36.3577 25.9407 37.1942 25.9407C37.2546 25.9407 37.3148 25.9387 37.3751 25.9365C36.7198 26.8129 35.309 27.0042 34.1275 26.345ZM39.073 23.1138C38.7945 23.58 38.3077 23.901 37.7026 24.0179C37.051 24.1438 36.3483 24.0213 35.7241 23.6729L31.4243 21.274C30.9202 20.1 29.9994 19.0988 28.7985 18.4289L26.1159 16.9323C25.3383 16.4985 24.4462 16.3493 23.6039 16.5118C23.2325 16.5839 22.8124 16.5091 22.4512 16.3076L7.66708 8.05978C6.39455 7.3498 5.85783 5.93764 6.47081 4.91192C6.92807 4.14663 7.90459 3.75813 8.96027 3.92051C10.407 4.17729 12.0455 4.4756 13.7478 4.79342L15.0362 9.43997C15.134 9.79275 15.4349 10.0585 15.8072 10.121L19.3023 10.7072C19.3576 10.7166 19.4131 10.721 19.4682 10.721C19.738 10.721 19.9988 10.612 20.1842 10.416C20.4076 10.1798 20.4908 9.85004 20.4052 9.54113L19.3891 5.87727C19.8672 5.97205 20.3394 6.06655 20.8024 6.16011L22.0511 10.6638C22.1489 11.0166 22.4498 11.2824 22.8221 11.3448L26.3172 11.931C26.3725 11.9404 26.428 11.9448 26.4831 11.9448C26.7529 11.9448 27.0137 11.8359 27.1991 11.6398C27.4225 11.4037 27.5057 11.0739 27.4201 10.7649L26.4834 7.38702C27.7886 7.69959 28.6976 7.95731 28.9962 8.12381L29.4372 8.36981L28.9648 9.16041C28.0533 10.6859 28.596 12.644 30.1746 13.5251L34.719 16.0618L33.33 16.4215C32.8126 16.5555 32.5055 17.0695 32.6441 17.5694C32.7602 17.9882 33.1521 18.2645 33.5804 18.2645C33.6634 18.2645 33.7481 18.2541 33.8321 18.2323L38.4672 17.0322C38.736 16.9972 39.0015 16.9405 39.26 16.8588L39.8263 16.6801L40.9147 16.3983C41.5119 16.3413 42.1549 16.4768 42.7167 16.7902C42.7665 16.818 42.7916 16.8508 42.8027 16.8713L39.073 23.1138Z" fill="#75F880"/>
</svg>
