<svg width="48" height="43" viewBox="0 0 48 43" fill="none" xmlns="http://www.w3.org/2000/svg">
<path d="M5.62401 23.2087L8.02401 32.7325C8.11318 33.0857 8.43307 33.3333 8.80001 33.3333C8.86557 33.3336 8.93089 33.3256 8.99441 33.3095C9.20037 33.2585 9.37745 33.1285 9.48669 32.9479C9.59592 32.7673 9.62834 32.5511 9.57681 32.3468L7.17681 22.823C7.06694 22.4007 6.63422 22.1455 6.2078 22.2515C5.78137 22.3575 5.52104 22.7849 5.62481 23.2087H5.62401Z" fill="#75F880"/>
<path d="M47.5152 7.07849C47.8092 6.95336 47.9998 6.6665 47.9998 6.34912C47.9998 6.03174 47.8092 5.74488 47.5152 5.61976L41.9152 3.2388C41.668 3.13369 41.3842 3.15881 41.1597 3.30564C40.9352 3.45248 40.8 3.70139 40.8 3.96817V10.5555C38.4289 9.98814 36.0241 9.56932 33.6 9.3015V6.87214L38.7152 4.69753C39.0092 4.57241 39.1998 4.28555 39.1998 3.96817C39.1998 3.65079 39.0092 3.36393 38.7152 3.2388L33.1152 0.857852C32.868 0.752741 32.5842 0.777853 32.3597 0.924689C32.1352 1.07153 32 1.32044 32 1.58722V9.1269C29.5344 8.8888 27.0608 8.75706 24.8 8.73007V6.07849L29.9152 3.90388C30.2092 3.77876 30.3998 3.49189 30.3998 3.17452C30.3998 2.85714 30.2092 2.57028 29.9152 2.44515L24.3152 0.0642009C24.068 -0.0409093 23.7842 -0.0157983 23.5597 0.131038C23.3352 0.277874 23.2 0.526789 23.2 0.793566V8.73484C20.9392 8.76023 18.4656 8.89357 16 9.13166V6.87214L21.1152 4.69753C21.4092 4.57241 21.5998 4.28555 21.5998 3.96817C21.5998 3.65079 21.4092 3.36393 21.1152 3.2388L15.5152 0.857852C15.268 0.752741 14.9842 0.777853 14.7597 0.924689C14.5352 1.07153 14.4 1.32044 14.4 1.58722V9.3015C11.9759 9.56932 9.57113 9.98814 7.2 10.5555V9.25309L12.3152 7.07849C12.6092 6.95336 12.7998 6.6665 12.7998 6.34912C12.7998 6.03174 12.6092 5.74488 12.3152 5.61976L6.7152 3.2388C6.46804 3.13369 6.18419 3.15881 5.95967 3.30564C5.73516 3.45248 5.60003 3.70139 5.6 3.96817V10.9944C2.2664 12.0031 0 13.3579 0 15.0793C0.00327337 15.2614 0.031808 15.4422 0.0848 15.6166L0.0904 15.6594C0.0943662 15.7053 0.102397 15.7507 0.1144 15.7952L4.644 33.0602C1.5352 33.988 0 35.1174 0 36.5079C0 40.3063 12.4096 42.8571 24 42.8571C35.5904 42.8571 48 40.3063 48 36.5079C48 35.1174 46.4648 33.988 43.36 33.0602L47.8856 15.7936C47.896 15.7526 47.9035 15.711 47.908 15.669L47.9152 15.615C47.968 15.4411 47.9966 15.2609 48 15.0793C48 13.3579 45.7336 12.0031 42.4 10.9944V9.25309L47.5152 7.07849ZM42.4 5.17214L45.1688 6.34912L42.4 7.52611V5.17214ZM33.6 2.79119L36.3688 3.96817L33.6 5.14515V2.79119ZM24.8 1.99753L27.5688 3.17452L24.8 4.3515V1.99753ZM16 2.79119L18.7688 3.96817L16 5.14515V2.79119ZM7.2 5.17214L9.9688 6.34912L7.2 7.52611V5.17214ZM8.48 16.3063L10.9952 17.869C10.3615 18.0104 9.73751 18.192 9.1272 18.4126C7.92192 18.1625 6.73002 17.8525 5.556 17.484C6.48851 16.9954 7.46808 16.6009 8.48 16.3063ZM14.3088 15.0213L15.8288 17.0944C14.9384 17.1912 14.0904 17.3023 13.3024 17.4269L10.5824 15.7364C11.7216 15.4642 12.98 15.2253 14.3064 15.0213H14.3088ZM37.4288 15.7356L34.7088 17.4261C33.9208 17.3015 33.0728 17.188 32.1824 17.0936L33.7024 15.0206C35.02 15.2253 36.2784 15.4642 37.4256 15.7364L37.4288 15.7356ZM42.4496 17.4817C41.2756 17.8502 40.0837 18.1601 38.8784 18.4102C38.2681 18.1896 37.6441 18.008 37.0104 17.8666L39.52 16.3063C40.5327 16.6007 41.5131 16.9953 42.4464 17.484L42.4496 17.4817ZM24 18.2539C27.6927 18.2372 31.3807 18.5164 35.028 19.0888C31.3745 19.5976 27.6893 19.849 24 19.8412C20.3107 19.849 16.6255 19.5976 12.972 19.0888C16.6193 18.5164 20.3073 18.2372 24 18.2539ZM30.3264 16.9205C29.3 16.8372 28.2352 16.7729 27.1488 16.7309L27.5672 14.3888C29.0448 14.4682 30.5024 14.5983 31.9 14.7706L30.3264 16.9205ZM25.532 16.6825C25.0232 16.6737 24.512 16.6666 24 16.6666C23.488 16.6666 22.9768 16.6737 22.468 16.6832L22.0448 14.3198C22.696 14.2991 23.348 14.2856 24 14.2856C24.652 14.2856 25.304 14.2991 25.9552 14.3198L25.532 16.6825ZM20.4328 14.3888L20.8512 16.7309C19.7648 16.7729 18.7 16.8372 17.6736 16.9205L16.1 14.7706C17.4976 14.5983 18.9552 14.4713 20.4328 14.3888ZM24 21.4285C31.3056 21.4285 41.252 20.2777 45.6928 17.8515L41.6128 33.3936C41.5923 33.4643 41.5818 33.5375 41.5816 33.611C41.5817 33.6554 41.5854 33.6998 41.5928 33.7436C41.3872 34.4952 38.1408 35.8713 32.7976 36.6737V34.1269C32.7932 30.1838 29.5722 26.9884 25.5976 26.984H23.2C19.2254 26.9884 16.0044 30.1838 16 34.1269V36.784C10.1784 36.0023 6.612 34.5237 6.4048 33.7356C6.4122 33.6918 6.41595 33.6475 6.416 33.6031C6.41603 33.5161 6.40143 33.4297 6.3728 33.3475L2.3072 17.8515C6.748 20.2777 16.6944 21.4285 24 21.4285ZM28 37.1753C26.7344 37.2547 25.4024 37.3015 24 37.3015C22.888 37.3015 21.8264 37.269 20.8 37.2174V34.1269C20.8 32.8119 21.8745 31.7459 23.2 31.7459H25.6C26.9255 31.7459 28 32.8119 28 34.1269V37.1753ZM25.6 30.1586H23.2C20.992 30.1613 19.2026 31.9364 19.2 34.1269V37.1166C18.6523 37.0753 18.1189 37.0277 17.6 36.9737V34.1269C17.6035 31.0601 20.1087 28.5748 23.2 28.5713H25.6C28.6913 28.5748 31.1965 31.0601 31.2 34.1269V36.8896C30.6832 36.9507 30.1488 37.0055 29.6 37.0547V34.1269C29.5974 31.9364 27.808 30.1613 25.6 30.1586ZM46.4 36.5079C46.4 37.9626 37.9376 41.2698 24 41.2698C10.0624 41.2698 1.6 37.9626 1.6 36.5079C1.6 36.1856 2.3512 35.3967 5.064 34.5856C6.6912 37.1928 15.6128 38.8888 24 38.8888C32.3872 38.8888 41.3088 37.1928 42.936 34.5856C45.6488 35.3967 46.4 36.1856 46.4 36.5079ZM46.3848 14.9848L46.3384 15.3317C46.1424 15.7936 45.4296 16.3031 44.2744 16.8079C42.8732 15.8244 41.3022 15.1041 39.6392 14.6825C39.6152 14.6753 39.5936 14.6666 39.5704 14.6618C37.5904 14.0997 35.5732 13.6754 33.5336 13.392C33.5136 13.3864 33.4944 13.3864 33.4752 13.3825C30.3369 12.9338 27.1707 12.7052 24 12.6983C20.829 12.7054 17.6625 12.9345 14.524 13.384C14.5048 13.384 14.4856 13.384 14.4672 13.3928C12.4264 13.6756 10.4082 14.0999 8.4272 14.6626C8.40632 14.6675 8.38575 14.6736 8.3656 14.6809C6.70096 15.1027 5.12832 15.8236 3.7256 16.8079C2.5704 16.3031 1.8576 15.7936 1.6616 15.3317L1.6152 14.9848C1.848 13.5825 7.224 11.6666 15.1832 10.7936H15.2C15.2192 10.7936 15.2352 10.784 15.2544 10.7825C21.068 10.1624 26.932 10.1624 32.7456 10.7825C32.7648 10.7825 32.7808 10.7936 32.8 10.7936H32.8168C40.776 11.6666 46.152 13.5825 46.3848 14.9848Z" fill="#75F880"/>
</svg>
